PathFileType	4	(X/Y/Z)	./resultDataOpenSim/trcMotMarkerGrf/sub06/qtm-13-08.trc
DataRate	CameraRate	NumFrames	NumMarkers	Units	OrigDataRate	OrigDataStartFrame	OrigNumFrames
250.000000	250.000000	12	24	m	250.000000	393	523
Frame#	Time	L.Toe.Tip			R.Toe.Tip			L.Ankle.Lat			R.Ankle.Lat			L.Ankle.Med			R.Ankle.Med			L.Heel			R.Heel			L.Knee.Lat			R.Knee.Lat			L.Knee.Med			R.Knee.Med			L.Thigh.Upper			R.Thigh.Upper			L.ASIS			R.ASIS			V.Sacral			L.Acromium			R.Acromium			C7			L.Elbow			R.Elbow			L.Wrist.Lat			R.Wrist.Lat
		X1	Y1	Z1	X2	Y2	Z2	X3	Y3	Z3	X4	Y4	Z4	X5	Y5	Z5	X6	Y6	Z6	X7	Y7	Z7	X8	Y8	Z8	X9	Y9	Z9	X10	Y10	Z10	X11	Y11	Z11	X12	Y12	Z12	X13	Y13	Z13	X14	Y14	Z14	X15	Y15	Z15	X16	Y16	Z16	X17	Y17	Z17	X18	Y18	Z18	X19	Y19	Z19	X20	Y20	Z20	X21	Y21	Z21	X22	Y22	Z22	X23	Y23	Z23	X24	Y24	Z24

393	1.568	1.4865686	0.10669831	-0.077728644	0.91534214	0.035114705	0.1146237	1.3587671	0.099158458	-0.091108125	0.78800159	0.089600996	0.12952415	1.3652392	0.11584665	-0.0073801172	0.81912167	0.10606352	0.044627565	1.3031711	0.04691017	-0.041441255	0.73546944	0.081565586	0.065991662	1.287487	0.46472342	-0.092383669	0.95994267	0.44252883	0.16324478	1.2860434	0.45958428	0.029327239	0.9391181	0.44131717	0.032223929	1.1007446	0.81124375	-0.12578391	1.0437302	0.79941648	0.21828565	1.1630798	0.85846721	-0.072948584	1.1489327	0.85245929	0.17651262	0.96980147	0.92670231	0.044747663	1.0609199	1.3353785	-0.13538481	1.0941937	1.3324296	0.22249555	1.0031484	1.3670531	0.050527117	0.95048001	1.0452275	-0.17291082	1.1281786	1.015901	0.32378961	0.99743017	0.81539074	-0.23999957	1.3681001	1.045991	0.24542048
394	1.572	1.500104	0.11003979	-0.077557038	0.91541762	0.0351	0.11465964	1.3723731	0.099836484	-0.091548031	0.78875027	0.09053781	0.12980745	1.3773016	0.11596161	-0.007721247	0.81982975	0.10680162	0.044928071	1.3176194	0.046192555	-0.043080555	0.73598566	0.08303413	0.066390078	1.2932905	0.46253815	-0.091601452	0.96388837	0.44208897	0.16326584	1.2910106	0.45708424	0.030386547	0.94317201	0.44095278	0.032128766	1.1077801	0.80989621	-0.12608068	1.0492577	0.79815942	0.21756534	1.1701194	0.85714461	-0.07318171	1.1549902	0.8509643	0.17628899	0.97637004	0.92546418	0.043973916	1.0668623	1.3340631	-0.1357812	1.1002178	1.3312554	0.22208002	1.0091547	1.365793	0.050137091	0.95533593	1.0445477	-0.17303916	1.1352165	1.0148309	0.32359552	1.0003673	0.81448187	-0.24063684	1.3745923	1.0471251	0.24422246
395	1.576	1.5129243	0.11331866	-0.077318038	0.9155018	0.035086361	0.11470164	1.3853942	0.10059541	-0.091903954	0.78953541	0.091523436	0.13013185	1.388443	0.11599756	-0.008026911	0.82057176	0.10756935	0.045253262	1.3313013	0.045664727	-0.044757247	0.7364838	0.084602343	0.066916386	1.2992999	0.4604981	-0.090808947	0.96800117	0.44163449	0.16334594	1.2960649	0.45463147	0.031438536	0.94734447	0.44054929	0.032031664	1.1148745	0.80850945	-0.12638991	1.0547925	0.79689787	0.21675997	1.1772003	0.85582276	-0.073408492	1.1610874	0.84944824	0.17605316	0.98321276	0.92418486	0.043167212	1.0728326	1.3327264	-0.13619443	1.1062826	1.3300612	0.22164067	1.015186	1.3645192	0.049728953	0.96025196	1.0438311	-0.17320503	1.1421871	1.0137169	0.32336552	1.0034659	0.81354871	-0.24125491	1.3810454	1.0480883	0.24308554
396	1.58	1.5250214	0.11635644	-0.07695373	0.91559621	0.035073372	0.11474936	1.3977935	0.10136235	-0.09214759	0.7903452	0.092561061	0.13049552	1.3989831	0.11599263	-0.0082648537	0.82135608	0.10836957	0.045600185	1.3442527	0.045195774	-0.046100103	0.73699513	0.086266479	0.067535187	1.3055198	0.45864821	-0.09001154	0.97222778	0.44115495	0.16340963	1.3012516	0.45228038	0.032475222	0.95163891	0.44010236	0.031941523	1.1220385	0.80708344	-0.12672218	1.0603512	0.79565877	0.2158775	1.1843163	0.85450723	-0.073625699	1.1672379	0.84790006	0.17581578	0.99025223	0.92289613	0.042360208	1.0788268	1.3313737	-0.13662895	1.1123732	1.3288435	0.22119292	1.021246	1.3632394	0.049298497	0.96522675	1.043077	-0.17340816	1.1490974	1.0125649	0.32310362	1.0067121	0.81259035	-0.24184677	1.3874424	1.0488843	0.24199062
397	1.584	1.5364197	0.11902249	-0.076467896	0.91570378	0.035059314	0.11480072	1.4095333	0.10206594	-0.092253524	0.79118939	0.093648662	0.13089802	1.4092682	0.11600293	-0.0083720689	0.82218644	0.10921023	0.045971009	1.3564916	0.044735968	-0.047058858	0.73757837	0.088011648	0.068168387	1.3119421	0.45700789	-0.089228196	0.97651496	0.44064212	0.16337698	1.3066367	0.45008551	0.033490071	0.95605789	0.43961048	0.031867543	1.129275	0.8056203	-0.12708214	1.0659817	0.79445439	0.21499333	1.1914628	0.85319777	-0.073833023	1.1734715	0.84630363	0.17559435	0.99725734	0.92163662	0.041539942	1.0848418	1.3300104	-0.13708983	1.1184661	1.3275979	0.22075571	1.0273334	1.361961	0.048842862	0.9702574	1.042285	-0.17364402	1.1559626	1.0113725	0.32282369	1.0101026	0.81160836	-0.24241299	1.3937659	1.0495176	0.24091141
398	1.588	1.5471491	0.12124819	-0.075884975	0.91582782	0.035043018	0.11485407	1.420607	0.10263416	-0.092204513	0.79207694	0.094789009	0.13133651	1.4193753	0.11602263	-0.0083056185	0.82306861	0.1101041	0.046368591	1.3680191	0.044265478	-0.047693566	0.73826439	0.08982565	0.068769573	1.3185519	0.4555713	-0.088473967	0.98085306	0.44009637	0.16322798	1.3122485	0.44807429	0.034474208	0.96060303	0.43907912	0.031812699	1.1365814	0.80413156	-0.12746459	1.0716896	0.79326678	0.21418328	1.1986378	0.85189148	-0.074033797	1.1798064	0.8446589	0.17539721	1.0040822	0.92041535	0.040710854	1.0908797	1.3286407	-0.13757424	1.1245515	1.326327	0.22033143	1.033444	1.3606869	0.04836183	0.97534397	1.0414591	-0.17390759	1.1628037	1.0101255	0.32255226	1.0136438	0.81060847	-0.24296097	1.4000113	1.0499883	0.23983847
399	1.592	1.5572269	0.12299967	-0.075216605	0.9159692	0.035024731	0.11490983	1.4310165	0.1030023	-0.091988389	0.79301775	0.095984181	0.13180008	1.429148	0.11598309	-0.0080611404	0.82401744	0.11106363	0.046793733	1.3788284	0.043746634	-0.048024276	0.7390468	0.091709458	0.069344112	1.3253277	0.45432799	-0.087753761	0.98527443	0.43952898	0.16301474	1.3180463	0.44623591	0.035409918	0.96527612	0.43851787	0.031774579	1.1439517	0.8026399	-0.12786159	1.0773834	0.79205156	0.21343935	1.2058353	0.85058705	-0.074229429	1.1862185	0.84300644	0.17520965	1.0107519	0.91921174	0.039907059	1.096948	1.3272662	-0.13807632	1.1306427	1.3250358	0.21990541	1.0395785	1.3594145	0.047858392	0.98049501	1.0406051	-0.17420159	1.1696313	1.0088077	0.32230864	1.0173414	0.8095994	-0.24349853	1.4061876	1.0502911	0.23878585
400	1.596	1.5666627	0.12425724	-0.07446737	0.91612552	0.035006389	0.11496928	1.4407557	0.10311696	-0.091598871	0.79402801	0.097233981	0.13227761	1.4384083	0.11581125	-0.0076565072	0.8250432	0.11209153	0.047244957	1.3889107	0.043122665	-0.048041278	0.73991155	0.093678129	0.069916228	1.3322397	0.45327369	-0.087071714	0.98981629	0.43895556	0.16282148	1.3239078	0.44453769	0.036269691	0.97007975	0.43793208	0.031750786	1.1513786	0.80116951	-0.12826889	1.0830259	0.79079771	0.21272811	1.2130461	0.84928377	-0.074417146	1.1926625	0.84140413	0.17500886	1.0173677	0.91800589	0.039141135	1.1030545	1.3258872	-0.13859749	1.1367585	1.323727	0.21946488	1.0457406	1.3581378	0.047333741	0.98571874	1.0397283	-0.17453139	1.1764126	1.0074193	0.32206728	1.0211975	0.80858643	-0.2440253	1.4123053	1.0504213	0.23777217
401	1.6	1.5754814	0.12499909	-0.073640471	0.91629356	0.034991796	0.11503449	1.4498264	0.10293531	-0.0910435	0.79511572	0.098544254	0.13276401	1.4470674	0.11545656	-0.0071103867	0.82614021	0.11317872	0.047717776	1.3982589	0.042342583	-0.047751686	0.74085465	0.095746945	0.070505695	1.3392622	0.45239359	-0.086437353	0.99450495	0.4383769	0.16271929	1.3295702	0.44293852	0.037021745	0.97501788	0.43732224	0.031742377	1.1588577	0.79973259	-0.12868742	1.0887254	0.78954605	0.2120006	1.2202651	0.84797918	-0.074594336	1.1991201	0.83987433	0.17478977	1.0240227	0.91679584	0.038390589	1.1091998	1.3245074	-0.1391456	1.1429023	1.3224057	0.21900979	1.0519287	1.3568548	0.046785053	0.99100961	1.0388335	-0.17489539	1.1830747	1.0059823	0.32176256	1.0252111	0.80756511	-0.2445313	1.4183683	1.0503795	0.23680319
402	1.604	1.583741	0.12520282	-0.07273022	0.91647116	0.034986224	0.11510923	1.4582453	0.10242687	-0.090348998	0.79628077	0.099916498	0.1332619	1.4551204	0.11488251	-0.0064384304	0.82730229	0.11431821	0.048210683	1.4068707	0.041376176	-0.047202175	0.7418792	0.097919641	0.071127773	1.3463792	0.45164981	-0.085858552	0.99937341	0.4377686	0.1627425	1.3346369	0.44139485	0.037636861	0.98009272	0.43668809	0.031751763	1.1663909	0.79833644	-0.12911923	1.094489	0.78832164	0.21111373	1.2274929	0.84666778	-0.074762438	1.2056048	0.83840155	0.17456254	1.0307751	0.91558791	0.03763103	1.1153815	1.3231345	-0.1397269	1.1490624	1.3210823	0.2185428	1.0581387	1.3555655	0.046211438	0.9963537	1.0379245	-0.17528815	1.1895667	1.0045272	0.32135036	1.0293813	0.80652617	-0.24500719	1.4243742	1.0501695	0.23587341
403	1.608	1.5915021	0.12485714	-0.071716063	0.9166568	0.034994492	0.11519535	1.4660333	0.10157539	-0.089556294	0.7975247	0.10134192	0.13378516	1.4625844	0.11406176	-0.0056639026	0.82853734	0.11551174	0.048731493	1.4147489	0.0402166	-0.046471108	0.74299082	0.10019143	0.071790574	1.3535659	0.45098868	-0.085336779	1.0044533	0.43710553	0.16287634	1.3389098	0.43989501	0.038100768	0.9853027	0.43602758	0.031779245	1.1739773	0.79699956	-0.12956366	1.1000967	0.78714322	0.21000513	1.2347338	0.84534203	-0.074926993	1.2121374	0.83696719	0.17433517	1.0376493	0.91437941	0.036851168	1.1216023	1.3217751	-0.14034145	1.1552276	1.3197655	0.21805921	1.0643696	1.3542667	0.045614318	1.0017474	1.0370048	-0.17570828	1.1959006	1.0030746	0.32084355	1.0337133	0.80546844	-0.24545217	1.4303233	1.0497965	0.23497363
404	1.612	1.5987539	0.12395721	-0.070565091	0.91684902	0.035016791	0.11528934	1.4732179	0.10038201	-0.088712432	0.79884404	0.10282018	0.1343527	1.4694683	0.11297706	-0.0048196195	0.82985942	0.11676196	0.049291394	1.4218996	0.03887028	-0.045639596	0.74419991	0.10255452	0.072489059	1.3607793	0.45035168	-0.084869663	1.0097356	0.43638821	0.16305568	1.3428316	0.43849395	0.038431121	0.99064869	0.43533457	0.031824316	1.1816013	0.7957402	-0.13002258	1.1053997	0.78606811	0.2088655	1.2419957	0.84399718	-0.075097671	1.2187373	0.83556321	0.17410739	1.0446472	0.91315872	0.036038563	1.1278677	1.3204297	-0.14098617	1.1614001	1.3184577	0.21755115	1.0706194	1.3529566	0.044991202	1.0072056	1.0360783	-0.17615721	1.202122	1.0016291	0.32028499	1.0382117	0.80440103	-0.24587103	1.4362245	1.0492657	0.23409717
